<svg width="114" height="123" viewBox="0 0 114 123" fill="none" xmlns="http://www.w3.org/2000/svg">
<g filter="url(#filter0_d)">
<rect x="3" y="4" width="100" height="100" rx="20" fill="#36332F"/>
</g>
<path d="M12.3809 111.708H9.33203V120H7.28125V111.708H4.27344V110.047H12.3809V111.708ZM17.2412 116.356H15.6074V120H13.5566V110.047H17.2549C18.4307 110.047 19.3376 110.309 19.9756 110.833C20.6136 111.357 20.9326 112.098 20.9326 113.055C20.9326 113.734 20.7845 114.301 20.4883 114.757C20.1966 115.208 19.7523 115.568 19.1553 115.837L21.3086 119.904V120H19.1074L17.2412 116.356ZM15.6074 114.695H17.2617C17.7767 114.695 18.1755 114.565 18.458 114.306C18.7406 114.041 18.8818 113.679 18.8818 113.219C18.8818 112.749 18.7474 112.38 18.4785 112.111C18.2142 111.842 17.8063 111.708 17.2549 111.708H15.6074V114.695ZM28.1172 117.949H24.5215L23.8379 120H21.6572L25.3623 110.047H27.2627L30.9883 120H28.8076L28.1172 117.949ZM25.0752 116.288H27.5635L26.3125 112.562L25.0752 116.288ZM37.0791 117.389C37.0791 117.001 36.9424 116.705 36.6689 116.5C36.3955 116.29 35.9033 116.072 35.1924 115.844C34.4814 115.611 33.9186 115.383 33.5039 115.16C32.3737 114.549 31.8086 113.727 31.8086 112.692C31.8086 112.155 31.959 111.676 32.2598 111.257C32.5651 110.833 33.0003 110.503 33.5654 110.266C34.1351 110.029 34.7731 109.91 35.4795 109.91C36.1904 109.91 36.8239 110.04 37.3799 110.3C37.9359 110.555 38.3665 110.917 38.6719 111.387C38.9818 111.856 39.1367 112.389 39.1367 112.986H37.0859C37.0859 112.531 36.9424 112.177 36.6553 111.927C36.3682 111.672 35.9648 111.544 35.4453 111.544C34.944 111.544 34.5544 111.651 34.2764 111.865C33.9984 112.075 33.8594 112.353 33.8594 112.699C33.8594 113.023 34.0212 113.294 34.3447 113.513C34.6729 113.731 35.1536 113.937 35.7871 114.128C36.9538 114.479 37.8037 114.914 38.3369 115.434C38.8701 115.953 39.1367 116.6 39.1367 117.375C39.1367 118.236 38.8109 118.913 38.1592 119.405C37.5075 119.893 36.6302 120.137 35.5273 120.137C34.7617 120.137 34.0645 119.998 33.4355 119.72C32.8066 119.437 32.3258 119.052 31.9932 118.564C31.665 118.077 31.501 117.512 31.501 116.869H33.5586C33.5586 117.967 34.2148 118.517 35.5273 118.517C36.015 118.517 36.3955 118.419 36.6689 118.223C36.9424 118.022 37.0791 117.744 37.0791 117.389ZM48.6318 120H46.5811V115.734H42.582V120H40.5312V110.047H42.582V114.08H46.5811V110.047H48.6318V120Z" fill="black"/>
<path d="M53.916 120V110.047H57.4023C58.61 110.047 59.526 110.279 60.1504 110.744C60.7747 111.204 61.0869 111.881 61.0869 112.774C61.0869 113.262 60.9616 113.693 60.7109 114.066C60.4603 114.436 60.1117 114.707 59.665 114.88C60.1755 115.007 60.5765 115.265 60.8682 115.652C61.1644 116.04 61.3125 116.514 61.3125 117.074C61.3125 118.031 61.0072 118.756 60.3965 119.248C59.7858 119.74 58.9154 119.991 57.7852 120H53.916ZM55.9668 115.666V118.353H57.7236C58.2067 118.353 58.5827 118.239 58.8516 118.011C59.125 117.778 59.2617 117.459 59.2617 117.054C59.2617 116.142 58.79 115.68 57.8467 115.666H55.9668ZM55.9668 114.217H57.4844C58.5189 114.199 59.0361 113.786 59.0361 112.979C59.0361 112.528 58.904 112.205 58.6396 112.009C58.3799 111.808 57.9674 111.708 57.4023 111.708H55.9668V114.217ZM70.3906 110.047V116.603C70.3906 117.692 70.0488 118.553 69.3652 119.187C68.6862 119.82 67.7565 120.137 66.5762 120.137C65.4141 120.137 64.4912 119.829 63.8076 119.214C63.124 118.599 62.7754 117.753 62.7617 116.678V110.047H64.8125V116.616C64.8125 117.268 64.9674 117.744 65.2773 118.045C65.5918 118.341 66.0247 118.489 66.5762 118.489C67.7292 118.489 68.3148 117.883 68.333 116.671V110.047H70.3906ZM79.9473 118.742C79.5781 119.184 79.0563 119.528 78.3818 119.774C77.7074 120.016 76.96 120.137 76.1396 120.137C75.2783 120.137 74.5218 119.95 73.8701 119.576C73.223 119.198 72.7217 118.651 72.3662 117.936C72.0153 117.22 71.8353 116.379 71.8262 115.413V114.736C71.8262 113.743 71.9925 112.884 72.3252 112.159C72.6624 111.43 73.1455 110.874 73.7744 110.491C74.4079 110.104 75.1484 109.91 75.9961 109.91C77.1764 109.91 78.0993 110.193 78.7646 110.758C79.43 111.318 79.8242 112.136 79.9473 113.212H77.9512C77.86 112.642 77.6572 112.225 77.3428 111.961C77.0329 111.697 76.6045 111.564 76.0576 111.564C75.3604 111.564 74.8294 111.826 74.4648 112.351C74.1003 112.875 73.9157 113.654 73.9111 114.688V115.324C73.9111 116.368 74.1094 117.156 74.5059 117.689C74.9023 118.223 75.4834 118.489 76.249 118.489C77.0192 118.489 77.5684 118.325 77.8965 117.997V116.281H76.0303V114.771H79.9473V118.742ZM89.4902 118.742C89.1211 119.184 88.5993 119.528 87.9248 119.774C87.2503 120.016 86.5029 120.137 85.6826 120.137C84.8213 120.137 84.0648 119.95 83.4131 119.576C82.766 119.198 82.2646 118.651 81.9092 117.936C81.5583 117.22 81.3783 116.379 81.3691 115.413V114.736C81.3691 113.743 81.5355 112.884 81.8682 112.159C82.2054 111.43 82.6885 110.874 83.3174 110.491C83.9508 110.104 84.6914 109.91 85.5391 109.91C86.7194 109.91 87.6423 110.193 88.3076 110.758C88.973 111.318 89.3672 112.136 89.4902 113.212H87.4941C87.403 112.642 87.2002 112.225 86.8857 111.961C86.5758 111.697 86.1475 111.564 85.6006 111.564C84.9033 111.564 84.3724 111.826 84.0078 112.351C83.6432 112.875 83.4587 113.654 83.4541 114.688V115.324C83.4541 116.368 83.6523 117.156 84.0488 117.689C84.4453 118.223 85.0264 118.489 85.792 118.489C86.5622 118.489 87.1113 118.325 87.4395 117.997V116.281H85.5732V114.771H89.4902V118.742ZM97.1465 115.687H93.209V118.353H97.8301V120H91.1582V110.047H97.8164V111.708H93.209V114.08H97.1465V115.687ZM99.0332 120V110.047H102.096C102.971 110.047 103.752 110.245 104.44 110.642C105.133 111.034 105.673 111.594 106.061 112.323C106.448 113.048 106.642 113.873 106.642 114.798V115.256C106.642 116.181 106.45 117.004 106.067 117.724C105.689 118.444 105.154 119.002 104.461 119.398C103.768 119.795 102.987 119.995 102.116 120H99.0332ZM101.084 111.708V118.353H102.075C102.877 118.353 103.49 118.09 103.914 117.566C104.338 117.042 104.554 116.293 104.563 115.317V114.791C104.563 113.779 104.354 113.014 103.935 112.494C103.515 111.97 102.902 111.708 102.096 111.708H101.084Z" fill="#FFC83A"/>
<path fill-rule="evenodd" clip-rule="evenodd" d="M53.1857 20.5833C46.2901 20.5833 39.6769 23.3577 34.8009 28.2962C29.925 33.2347 27.1857 39.9326 27.1857 46.9167C27.1857 57.1146 33.7369 67.0097 40.92 74.6895C44.4452 78.4581 47.9815 81.5434 50.64 83.6872C51.6293 84.4855 52.4935 85.15 53.1857 85.6681C53.878 85.15 54.7421 84.4855 55.7314 83.6872C58.3899 81.5434 61.9263 78.4581 65.4512 74.6895C72.6347 67.0097 79.1857 57.1146 79.1857 46.9167C79.1857 39.9326 76.4463 33.2347 71.5706 28.2962C66.6947 23.3577 60.0812 20.5833 53.1857 20.5833ZM53.1857 89.7083C51.3829 92.4473 51.382 92.4467 51.3813 92.446L51.3719 92.4398L51.3501 92.425L51.2757 92.3739C51.2123 92.3305 51.1223 92.2679 51.0069 92.187C50.7758 92.025 50.4443 91.789 50.0261 91.4832C49.1898 90.8716 48.0065 89.9789 46.5909 88.8374C43.765 86.5582 39.9887 83.2659 36.2014 79.2168C28.7595 71.2612 20.6857 59.7604 20.6857 46.9167C20.6857 38.1866 24.1098 29.8142 30.2047 23.6411C36.2997 17.468 44.5662 14 53.1857 14C61.8054 14 70.0717 17.468 76.1668 23.6411C82.2615 29.8142 85.6857 38.1866 85.6857 46.9167C85.6857 59.7604 77.6117 71.2612 70.1702 79.2168C66.3827 83.2659 62.6065 86.5582 59.7806 88.8374C58.3649 89.9789 57.1816 90.8716 56.3454 91.4832C55.9271 91.789 55.5956 92.025 55.3645 92.187C55.2491 92.2679 55.1591 92.3305 55.0957 92.3739L55.0213 92.425L54.9995 92.4398L54.9927 92.4444C54.9917 92.445 54.9885 92.4473 53.1857 89.7083ZM53.1857 89.7083L54.9885 92.4473C53.8968 93.1843 52.473 93.183 51.3813 92.446L53.1857 89.7083Z" fill="#FFC634"/>
<path fill-rule="evenodd" clip-rule="evenodd" d="M38.8333 43.75C38.8333 42.9446 39.4676 42.2917 40.25 42.2917H65.75C66.5324 42.2917 67.1667 42.9446 67.1667 43.75C67.1667 44.5554 66.5324 45.2083 65.75 45.2083H40.25C39.4676 45.2083 38.8333 44.5554 38.8333 43.75Z" fill="#FFC634"/>
<path fill-rule="evenodd" clip-rule="evenodd" d="M50.1667 39.375C49.791 39.375 49.4306 39.5286 49.1649 39.8021C48.8993 40.0756 48.75 40.4466 48.75 40.8333V42.2917H57.25V40.8333C57.25 40.4466 57.1008 40.0756 56.8351 39.8021C56.5694 39.5286 56.2091 39.375 55.8333 39.375H50.1667ZM60.0833 42.2917V40.8333C60.0833 39.673 59.6356 38.5602 58.8385 37.7397C58.0415 36.9193 56.9605 36.4583 55.8333 36.4583H50.1667C49.0395 36.4583 47.9585 36.9193 47.1615 37.7397C46.3644 38.5602 45.9167 39.673 45.9167 40.8333V42.2917H43.0833C42.3009 42.2917 41.6667 42.9446 41.6667 43.75V64.1667C41.6667 65.327 42.1144 66.4398 42.9115 67.2603C43.7085 68.0807 44.7895 68.5417 45.9167 68.5417H60.0833C61.2105 68.5417 62.2915 68.0807 63.0885 67.2603C63.8856 66.4398 64.3333 65.327 64.3333 64.1667V43.75C64.3333 42.9446 63.6991 42.2917 62.9167 42.2917H60.0833ZM44.5 45.2083V64.1667C44.5 64.5534 44.6493 64.9244 44.9149 65.1979C45.1806 65.4714 45.541 65.625 45.9167 65.625H60.0833C60.4591 65.625 60.8194 65.4714 61.0851 65.1979C61.3508 64.9244 61.5 64.5534 61.5 64.1667V45.2083H44.5Z" fill="#FFC634"/>
<path fill-rule="evenodd" clip-rule="evenodd" d="M50.1667 49.5833C50.9491 49.5833 51.5833 50.2362 51.5833 51.0417V59.7917C51.5833 60.5971 50.9491 61.25 50.1667 61.25C49.3843 61.25 48.75 60.5971 48.75 59.7917V51.0417C48.75 50.2362 49.3843 49.5833 50.1667 49.5833Z" fill="#FFC634"/>
<path fill-rule="evenodd" clip-rule="evenodd" d="M55.8333 49.5833C56.6157 49.5833 57.25 50.2362 57.25 51.0417V59.7917C57.25 60.5971 56.6157 61.25 55.8333 61.25C55.0509 61.25 54.4167 60.5971 54.4167 59.7917V51.0417C54.4167 50.2362 55.0509 49.5833 55.8333 49.5833Z" fill="#FFC634"/>
<defs>
<filter id="filter0_d" x="0" y="0" width="112" height="112" filterUnits="userSpaceOnUse" color-interpolation-filters="sRGB">
<feFlood flood-opacity="0" result="BackgroundImageFix"/>
<feColorMatrix in="SourceAlpha" type="matrix" values="0 0 0 0 0 0 0 0 0 0 0 0 0 0 0 0 0 0 127 0"/>
<feOffset dx="3" dy="2"/>
<feGaussianBlur stdDeviation="3"/>
<feColorMatrix type="matrix" values="0 0 0 0 0 0 0 0 0 0 0 0 0 0 0 0 0 0 0.54 0"/>
<feBlend mode="normal" in2="BackgroundImageFix" result="effect1_dropShadow"/>
<feBlend mode="normal" in="SourceGraphic" in2="effect1_dropShadow" result="shape"/>
</filter>
</defs>
</svg>
